<?xml version="1.0" standalone="no"?>
<!DOCTYPE svg PUBLIC "-//W3C//DTD SVG 20010904//EN"
 "http://www.w3.org/TR/2001/REC-SVG-20010904/DTD/svg10.dtd">
<svg version="1.0" xmlns="http://www.w3.org/2000/svg"
 width="700.000000pt" height="700.000000pt" viewBox="0 0 700.000000 700.000000"
 preserveAspectRatio="xMidYMid meet">
<metadata>
Created by potrace 1.14, written by Peter Selinger 2001-2017
</metadata>
<g transform="translate(0.000000,700.000000) scale(0.100000,-0.100000)"
fill="#000000" stroke="none">
<path d="M1064 6970 c-137 -23 -251 -60 -368 -120 -134 -68 -214 -127 -326
-239 -140 -141 -229 -283 -293 -467 -75 -217 -70 -17 -71 -2614 -1 -1279 2
-2345 5 -2370 4 -25 10 -66 13 -92 15 -113 82 -300 148 -411 103 -177 265
-344 423 -440 166 -100 339 -160 526 -183 71 -9 4688 -9 4758 0 30 3 87 13
127 21 442 92 807 424 938 855 59 193 56 44 53 2630 -1 1306 -6 2389 -10 2405
-5 17 -15 57 -23 90 -84 331 -296 611 -594 785 -119 69 -258 119 -440 156 -19
4 -1099 8 -2400 9 -2199 2 -2372 1 -2466 -15z"/>
</g>
</svg>
